# xmcd
#
# Track frame offsets:
# 150
# 16523
# 28049
# 40243
# 52475
# 67585
# 82164
# 96978
# 108740
# 123218
# 137269
# 152256
# 163676
# 178939
# 192395
# 206184
# 221046
# 236056
# 246574
# 258670
#
# Disc length: 3622 seconds
#
#
# Revision: 0
# Processed by: cddbd v1.5.1PL0 Copyright (c) Steve Scherf et al.
# Submitted via: FreeRIP 2.90 
#
DISCID=250e2414
DTITLE=Glen Miller - The King of Big Bands - Glen Miller - The King of Big Bands
DYEAR=2004
DGENRE=Jazz
TTITLE0=In the Mood
TTITLE1=The WoodPecker Song
TTITLE2=I Just Got A Letter
TTITLE3=Baby Me
TTITLE4=Ciri-Biri-Bin
TTITLE5=Faithful to You
TTITLE6=My Pryer
TTITLE7=Shake Down The Stars
TTITLE8=Blue Train
TTITLE9=I Want to Be Happy
TTITLE10=Indian Summer
TTITLE11=Love with a Capital You
TTITLE12=Stardust
TTITLE13=It Was Written in the Stars
TTITLE14=So Many Times
TTITLE15=Speaking of Heaven
TTITLE16=It's A Blue World
TTITLE17=Starlight and Music
TTITLE18=This Changing World
TTITLE19=We Wish You Upon a Star
EXTD=
EXTT0=
EXTT1=
EXTT2=
EXTT3=
EXTT4=
EXTT5=
EXTT6=
EXTT7=
EXTT8=
EXTT9=
EXTT10=
EXTT11=
EXTT12=
EXTT13=
EXTT14=
EXTT15=
EXTT16=
EXTT17=
EXTT18=
EXTT19=
PLAYORDER=
